<?xml version="1.0" encoding="UTF-8"?>
<svg xmlns="http://www.w3.org/2000/svg" version="1.1" viewBox="0 0 37.43 47.12">
  <defs>
    <style>
      .cls-1 {
        fill: #fff;
      }
    </style>
  </defs>
  <!-- Generator: Adobe Illustrator 28.7.1, SVG Export Plug-In . SVG Version: 1.2.0 Build 142)  -->
  <g>
    <g id="Layer_1">
      <path class="cls-1" d="M34.18,30.7c0,.21,0,.42-.01.63-.06.82-.18,1.64-.38,2.45-.01.05-.02.1-.04.15-.43,1.59-1.16,3.08-2.13,4.41-.17.22-.35.44-.55.66-1.51,1.68-2.83,2.79-4.05,3.57-.01.01-.03.02-.04.03-.9.55-1.86,1.02-2.86,1.39-.08.03-.16.06-.23.08-.09.03-.18.06-.27.09-1.58.53-3.23.82-4.9.82-5.66,0-11.18-3.3-13.83-8.09,0-.01-.01-.02-.02-.03-1.03-1.86-1.62-3.95-1.62-6.15,0-2.42.49-4.83,1.27-7.15,0-.01,0-.03.02-.04C7.3,15.39,13.61,8.51,14.92,7.15h0s0,0,0,0c0-.01.02-.02.03-.03,0-.01.02-.02.03-.03.04-.04.07-.07.09-.1.02-.01.03-.03.04-.04.02-.02.03-.04.03-.04l1.85,1.59.54-1.17,2.37-5.17s.03.03.09.09c.02.02.05.04.08.07.17.17.34.34.51.51.19.2.38.39.57.58.07.07.14.15.21.22.06.06.11.12.17.18.08.09.16.17.24.26.08.09.16.18.25.27,6.57,7.06,9.59,13.56,10.98,18.43.02.07.04.14.06.22,1.03,3.69,1.11,6.42,1.11,7.71Z"/>
    </g>
  </g>
</svg>